<?xml version="1.0" encoding="utf-8" ?>
<svg xmlns="http://www.w3.org/2000/svg" xmlns:cc="http://creativecommons.org/ns" xmlns:dc="http://purl.org/dc/elements/1.1/" xmlns:ev="http://www.w3.org/2001/xml-events" xmlns:inkscape="http://www.inkscape.org/namespaces/inkscape" xmlns:rdf="http://www.w3.org/1999/02/22-rdf-syntax-ns" xmlns:sodipodi="http://sodipodi.sourceforge.net/DTD/sodipodi-0.dtd" xmlns:xlink="http://www.w3.org/1999/xlink" baseProfile="tiny" height="2.64583333cm" version="1.2" viewBox="0 0 100.0 100.0" width="2.64583333cm">
  <metadata>
    <rdf:RDF>
      <cc:Work>
        <dc:format>image/svg+xml</dc:format>
        <dc:source>vpype circle 50 50 50 write --page-size 100x100 --center circle.svg
</dc:source>
        <dc:date>2025-03-20T09:06:35.416290</dc:date>
      </cc:Work>
    </rdf:RDF>
  </metadata>
  <defs/>
  <g fill="none" id="layer1" inkscape:groupmode="layer" inkscape:label="1" stroke="#0000ff" style="display:inline">
    <polygon points="100.0,50.0 99.8602,46.2635 99.4415,42.5479 98.7464,38.874 97.7786,35.2622 96.5437,31.7329 95.0484,28.3058 93.3013,25.0 91.3119,21.834 89.0916,18.8255 86.6526,15.9914 84.0086,13.3474 81.1745,10.9084 78.166,8.6881 75.0,6.6987 71.6942,4.9516 68.2671,3.4563 64.7378,2.2214 61.126,1.2536 57.4521,0.5585 53.7365,0.1398 50.0,0.0 46.2635,0.1398 42.5479,0.5585 38.874,1.2536 35.2622,2.2214 31.7329,3.4563 28.3058,4.9516 25.0,6.6987 21.834,8.6881 18.8255,10.9084 15.9914,13.3474 13.3474,15.9914 10.9084,18.8255 8.6881,21.834 6.6987,25.0 4.9516,28.3058 3.4563,31.7329 2.2214,35.2622 1.2536,38.874 0.5585,42.5479 0.1398,46.2635 0.0,50.0 0.1398,53.7365 0.5585,57.4521 1.2536,61.126 2.2214,64.7378 3.4563,68.2671 4.9516,71.6942 6.6987,75.0 8.6881,78.166 10.9084,81.1745 13.3474,84.0086 15.9914,86.6526 18.8255,89.0916 21.834,91.3119 25.0,93.3013 28.3058,95.0484 31.7329,96.5437 35.2622,97.7786 38.874,98.7464 42.5479,99.4415 46.2635,99.8602 50.0,100.0 53.7365,99.8602 57.4521,99.4415 61.126,98.7464 64.7378,97.7786 68.2671,96.5437 71.6942,95.0484 75.0,93.3013 78.166,91.3119 81.1745,89.0916 84.0086,86.6526 86.6526,84.0086 89.0916,81.1745 91.3119,78.166 93.3013,75.0 95.0484,71.6942 96.5437,68.2671 97.7786,64.7378 98.7464,61.126 99.4415,57.4521 99.8602,53.7365"/>
  </g>
</svg>
